<svg xmlns="http://www.w3.org/2000/svg" viewBox="0 0 120 120" role="img" aria-labelledby="title desc">
  <title id="title">Logotipo PSARJ Online</title>
  <desc id="desc">Marca circular com formas geométricas azuis e verdes representando integração digital.</desc>
  <defs>
    <linearGradient id="gradient-primary" x1="0" x2="1" y1="0" y2="1">
      <stop offset="0%" stop-color="#3a7bff" />
      <stop offset="100%" stop-color="#1f53d5" />
    </linearGradient>
    <linearGradient id="gradient-accent" x1="0" x2="0" y1="0" y2="1">
      <stop offset="0%" stop-color="#35d3b4" />
      <stop offset="100%" stop-color="#009c7a" />
    </linearGradient>
  </defs>
  <circle cx="60" cy="60" r="56" fill="#f3f6ff" />
  <path
    d="M60 18c23.196 0 42 18.804 42 42 0 23.197-18.804 42-42 42S18 83.197 18 60c0-5.613 1.086-10.973 3.063-15.877l12.4 7.842C31.517 55.282 30.8 57.571 30.8 60c0 16.135 13.065 29.2 29.2 29.2 16.136 0 29.2-13.065 29.2-29.2 0-16.136-13.064-29.2-29.2-29.2a29.002 29.002 0 0 0-12.496 2.798l-7.886-12.467A41.819 41.819 0 0 1 60 18z"
    fill="url(#gradient-primary)"
    opacity="0.95"
  />
  <path
    d="M70.8 31.6c12.74 3.274 22.2 14.76 22.2 28.4 0 16.135-13.064 29.2-29.2 29.2-11.299 0-21.083-6.382-26.028-15.763l14.078-8.904A12.015 12.015 0 0 0 60 66.8c6.627 0 12-5.373 12-12a12.01 12.01 0 0 0-5.598-10.155z"
    fill="url(#gradient-accent)"
    opacity="0.9"
  />
  <circle cx="60" cy="54.8" r="11.2" fill="#ffffff" />
</svg>
